Coordinates
version=1
nRows=11
nColumns=33
inDegrees=yes

Units are S.I. units (second, meters, Newtons, ...)
Angles are in degrees.

endheader
time	ground_thorax_rot_x	ground_thorax_rot_y	ground_thorax_rot_z	ground_thorax_tx	ground_thorax_ty	ground_thorax_tz	clav_prot_r	clav_elev_r	scapula_abduction_r	scapula_elevation_r	scapula_upward_rot_r	scapula_winging_r	shoulder_elv_r	plane_of_elev_r	axial_rot_r	elbow_flexion_r	pro_sup_r	wrist_flex_r	wrist_dev_r	clav_prot_l	clav_elev_l	scapula_abduction_l	scapula_elevation_l	scapula_upward_rot_l	scapula_winging_l	shoulder_elv_l	plane_of_elev_l	axial_rot_l	elbow_flexion_l	pro_sup_l	wrist_flex_l	wrist_dev_l	
3.6800	39.694253	12.558305	14.257369	-203.400650	832.237802	5.385685	12.955976	40.719416	40.078536	45.000000	-27.246252	-1890.752182	-4793.138027	146.622910	-134.591880	2532.289647	17.045938	19.541042	7.568597	6.628662	-45.000000	-36.965431	45.000000	-39.476841	1536.118183	-3333.277918	137.931462	155.344406	1450.756930	3.771989	6.913968	-19.741280	
3.6900	39.658159	12.445620	14.208719	-205.048581	833.188359	5.315678	12.917678	40.641949	39.984478	45.000000	-27.506905	-1890.754888	-4793.003167	146.588413	-134.577291	2532.312113	16.835422	19.565212	7.485824	6.674634	-45.000000	-36.966242	45.000000	-39.555041	1536.295798	-3333.211764	137.994754	155.004464	1450.762267	3.394069	6.863397	-19.729517	
3.7000	39.622805	12.329663	14.153603	-206.685498	834.119913	5.233893	12.879161	40.558276	39.892939	45.000000	-27.769391	-1890.759065	-4792.874563	146.553866	-134.549545	2532.334785	16.654314	19.591499	7.391248	6.719803	-45.000000	-36.969024	45.000000	-39.625624	1536.475248	-3333.150614	138.057746	154.652045	1450.765884	3.035632	6.807241	-19.720648	
3.7100	39.586341	12.220810	14.102257	-208.312662	835.032460	5.141275	12.842560	40.480508	39.797293	45.000000	-28.038059	-1890.761685	-4792.746345	146.521701	-134.506716	2532.362470	16.506803	19.620915	7.289653	6.763304	-45.000000	-36.971562	45.000000	-39.697038	1536.653327	-3333.090773	138.126839	154.285659	1450.770860	2.701399	6.745436	-19.715239	
3.7200	39.548262	12.114573	14.052218	-209.931075	835.926303	5.039001	12.806654	40.394328	39.705153	45.000000	-28.310934	-1890.767141	-4792.623604	146.491338	-134.454014	2532.391417	16.397112	19.650856	7.177254	6.807600	-45.000000	-36.974108	45.000000	-39.766667	1536.834955	-3333.032811	138.196045	153.911431	1450.772794	2.394640	6.675526	-19.711865	
3.7300	39.507104	12.018569	14.011267	-211.541600	836.802011	4.928543	12.773351	40.314853	39.607937	45.000000	-28.591330	-1890.770485	-4792.501541	146.462691	-134.391063	2532.423505	16.331841	19.681416	7.058262	6.852076	-45.000000	-36.974240	45.000000	-39.841352	1537.015960	-3332.974506	138.271444	153.533535	1450.772574	2.119506	6.599880	-19.710467	
3.7400	39.462509	11.930663	13.979741	-213.144675	837.660131	4.811718	12.741615	40.226332	39.514415	45.000000	-28.876844	-1890.777087	-4792.385455	146.438433	-134.322138	2532.456283	16.318716	19.710371	6.930374	6.899923	-45.000000	-36.970295	45.000000	-39.929435	1537.200041	-3332.915008	138.344815	153.159904	1450.767011	1.879264	6.514664	-19.709750	
3.7500	39.415630	11.854180	13.958687	-214.740498	838.501123	4.690635	12.712925	40.146343	39.414802	45.000000	-29.170107	-1890.780195	-4792.269469	146.413471	-134.246211	2532.489963	16.366386	19.737623	6.795571	6.949580	-45.000000	-36.961360	45.000000	-40.034217	1537.380855	-3332.854323	138.419717	152.796099	1450.758687	1.679298	6.423713	-19.710036	
3.7600	39.366628	11.790835	13.950882	-216.328902	839.325126	4.567570	12.688055	40.056679	39.319127	45.000000	-29.473215	-1890.785284	-4792.156454	146.393653	-134.167452	2532.527056	16.484303	19.762347	6.653805	7.006471	-45.000000	-36.947295	45.000000	-40.171232	1537.562153	-3332.790568	138.488348	152.447250	1450.749003	1.524205	6.323214	-19.710916	
3.7700	39.318355	11.738592	13.951962	-217.909708	840.131976	4.444769	12.667750	39.975345	39.215887	45.000000	-29.788345	-1890.785897	-4792.039172	146.368659	-134.085761	2532.568022	16.680997	19.784563	6.505117	7.067904	-45.000000	-36.928018	45.000000	-40.346735	1537.737167	-3332.721834	138.550775	152.118823	1450.741980	1.421114	6.216441	-19.713152	
3.7800	39.263878	11.725034	13.994575	-219.482748	840.921080	4.324256	12.661179	39.881233	39.112401	45.000000	-30.147125	-1890.788017	-4791.912874	146.349302	-134.004648	2532.624617	16.973872	19.804383	6.353045	7.150989	-45.000000	-36.897326	45.000000	-40.637182	1537.907482	-3332.633150	138.596986	151.831813	1450.743055	1.373438	6.094000	-19.715834	
